# xmcd
#
# Track frame offsets:
#	150
#	16520
#	27053
#	36706
#	46746
#	58710
#	69137
#	81595
#	85776
#	97717
#	111990
#	122888
#	136523
#	149575
#	159590
#	172092
#	183806
#	199032
#	209839
#	214867
#	226334
#	236861
#	245668
#	255397
#	265005
#	278025
#	293983
#	305129
#
# Disc length: 4281 seconds
#
# Revision: 1
# Processed by: cddbd v1.5.1PL0 Copyright (c) Steve Scherf et al.
# Submitted via: audiograbber 1.83.01
#
DISCID=9610b71c
DTITLE=Alton Stitcher - I hear a sweet voice calling
DYEAR=2003
DGENRE=Country
TTITLE0=My Georgia mountain home
TTITLE1=When it's time for the whippoorwill to sing
TTITLE2=Model-T Ford
TTITLE3=Babes in the woods
TTITLE4=That's my baby
TTITLE5=Listening to the mockingbird
TTITLE6=I feel like travelling on
TTITLE7=Old Dan Tucker
TTITLE8=Alone and blue
TTITLE9=Remember me (when the candlelights are gleaming)
TTITLE10=Only you
TTITLE11=Prodigal son
TTITLE12=My little darling
TTITLE13=Sweet memories
TTITLE14=When heaven comes down
TTITLE15=My red rose has turned to white
TTITLE16=Froggie went a-courtin'
TTITLE17=Red River valley
TTITLE18=Just an old chimney stack
TTITLE19=Kentucky
TTITLE20=Wildwood flower
TTITLE21=They call me a dreamer
TTITLE22=As long as I live
TTITLE23=Have I told you lately that I love you
TTITLE24=Wonderful words of life
TTITLE25=I dreamed I searched heaven for you
TTITLE26=The fox
TTITLE27=The strawberry roan
EXTD=Center for Public History
EXTT0=
EXTT1=
EXTT2=
EXTT3=
EXTT4=
EXTT5=
EXTT6=
EXTT7=
EXTT8=
EXTT9=
EXTT10=
EXTT11=
EXTT12=
EXTT13=
EXTT14=
EXTT15=
EXTT16=
EXTT17=
EXTT18=
EXTT19=
EXTT20=
EXTT21=
EXTT22=
EXTT23=
EXTT24=
EXTT25=
EXTT26=
EXTT27=
PLAYORDER=
